HIERARCHY
ROOT Hips
{
  OFFSET 219.075 95.8898 529.492
  CHANNELS 6 Xposition Yposition Zposition Zrotation Xrotation Yrotation
  JOINT RightUpLeg
  {
    OFFSET -8.9458 -8.66707 0.101652
    CHANNELS 3 Zrotation Xrotation Yrotation
    JOINT RightLeg
    {
      OFFSET 0 -44.4227 1.3727
      CHANNELS 3 Zrotation Xrotation Yrotation
      JOINT RightFoot
      {
        OFFSET 0.253549 -42.0924 -1.46059
        CHANNELS 3 Zrotation Xrotation Yrotation
        JOINT RightToes
        {
          OFFSET 0.04 -4.41509 8.4991
          CHANNELS 3 Zrotation Xrotation Yrotation
          End Site
          {
            OFFSET -0.08 -0.137448 9.77979
          }
        }
      }
    }
  }
  JOINT Spine
  {
    OFFSET 0 11.8905 0
    CHANNELS 3 Zrotation Xrotation Yrotation
    JOINT Spine1
    {
      OFFSET 0 25.6574 0.127663
      CHANNELS 3 Zrotation Xrotation Yrotation
      JOINT HEad
      {
        OFFSET 0 8.73416 0.011341
        CHANNELS 3 Zrotation Xrotation Yrotation
        End Site
        {
          OFFSET -0.29 12.7742 2.51395
        }
      }
      JOINT LeftShoulder1
      {
        OFFSET 8.99 -0.362252 -0.22
        CHANNELS 3 Zrotation Xrotation Yrotation
        JOINT LeftArm
        {
          OFFSET 10.2827 -0.00338 0.322123
          CHANNELS 3 Zrotation Xrotation Yrotation
          JOINT LeftForeArm
          {
            OFFSET 32.7669 0.099144 -1.42434
            CHANNELS 3 Zrotation Xrotation Yrotation
            JOINT LeftHand
            {
              OFFSET 27.5643 0.085362 1.02216
              CHANNELS 3 Zrotation Xrotation Yrotation
              End Site
              {
                OFFSET 16.7443 -0.6 1.50291
              }
            }
          }
        }
      }
      JOINT RightShoulder
      {
        OFFSET -8.99 -0.362252 -0.22
        CHANNELS 3 Zrotation Xrotation Yrotation
        JOINT RightArm
        {
          OFFSET -10.2827 -0.00338 0.322123
          CHANNELS 3 Zrotation Xrotation Yrotation
          JOINT RightForeArm
          {
            OFFSET -32.8971 0.099144 -1.42434
            CHANNELS 3 Zrotation Xrotation Yrotation
            JOINT RightHand
            {
              OFFSET -27.4921 0.085362 1.02216
              CHANNELS 3 Zrotation Xrotation Yrotation
              End Site
              {
                OFFSET -16.6312 -0.6 1.50291
              }
            }
          }
        }
      }
    }
  }
  JOINT LeftUpLeg
  {
    OFFSET 8.9458 -8.66707 0.101652
    CHANNELS 3 Zrotation Xrotation Yrotation
    JOINT LeftLeg
    {
      OFFSET 0 -44.4227 1.3727
      CHANNELS 3 Zrotation Xrotation Yrotation
      JOINT LeftFoot
      {
        OFFSET -0.253549 -42.0924 -1.46059
        CHANNELS 3 Zrotation Xrotation Yrotation
        JOINT LeftToes
        {
          OFFSET -0.04 -4.41509 8.4991
          CHANNELS 3 Zrotation Xrotation Yrotation
          End Site
          {
            OFFSET 0.08 -0.047448 9.77979
          }
        }
      }
    }
  }
}
MOTION
Frames:	12
Frame Time:	0.0166667
191.692 100.786 575.665 -15.8213 -5.27763 -70.7582 -1.80038 -11.9043 3.1808 4.41595 29.1848 -4.01229 4.51811 -3.10956 0.0467583 0.0462048 0.000533403 0.662642 21.6505 3.15931 -12.9018 -0.0395278 0.0271816 0.0306196 -21.6538 47.7183 26.6381 -6.36111e-015 -1.59028e-015 -0 -117.044 -67.9902 -124.517 -70.7358 63.0246 -54.2541 10.3139 18.9785 1.98417 24.4192 9.54458 1.52345 61.8283 -38.8953 69.7156 42.1707 60.0034 78.5971 -10.1617 17.6508 1.14648 12.4646 -18.0481 10.7957 10.8216 42.1569 -16.0456 -8.7035 -0.522321 -0.393299 -1.18446e-009 1.5602e-007 -4.87132e-009 
193.183 100.583 575.336 -15.776 -3.85771 -74.0902 -0.346645 -14.838 -0.114088 0.354863 32.8955 -4.89688 2.51049 -3.16019 -0.0640954 0.0462048 0.000533403 0.662642 25.0959 2.4836 -13.7757 -0.0399974 0.0281618 0.0355996 -26.8317 49.8904 30.8439 -3.18055e-015 0 -2.38542e-015 -115.957 -71.328 -127.147 -69.6802 60.1406 -53.5632 8.56796 18.5311 1.37325 20.4752 11.8507 4.39158 61.8678 -38.6151 70.9455 43.4313 59.0721 75.1854 -8.96078 16.6574 4.51503 11.3004 -18.4519 13.3041 17.6973 41.1877 -26.2848 -9.46436 -0.410358 -0.471355 -1.18447e-009 1.5602e-007 -4.87131e-009 
194.594 100.264 574.968 -15.5396 -2.59658 -77.1264 -0.443333 -17.7296 -4.33019 -3.46112 38.0477 -3.40583 5.34264 -2.11196 0.280689 0.0462048 0.000533403 0.662642 27.4019 2.45788 -14.3396 -0.0300373 0.0286919 0.0370593 -30.8707 51.1315 34.496 -3.18055e-015 1.98785e-016 1.98785e-016 -118.083 -74.9593 -131.023 -69.2997 58.6081 -52.8202 12.2269 16.7974 3.63516 17.5053 13.4207 7.36894 61.6829 -38.0839 71.847 44.4304 57.6848 71.9481 -9.4103 16.7537 4.5266 9.88459 -18.5704 14.3263 23.0126 39.2421 -33.015 -10.1548 -0.597634 -0.513293 -1.18447e-009 1.5602e-007 -4.87131e-009 
195.903 99.8637 574.431 -15.1539 -1.54474 -79.7941 -0.738858 -20.3439 -8.46204 -8.07304 43.8759 0.0542063 4.71674 -1.59368 0.172901 0.0462048 0.000533403 0.662642 28.6957 2.92275 -14.5496 -0.0190373 0.0276119 0.0370591 -33.6026 51.7229 37.321 -3.18055e-015 -4.96962e-016 4.96962e-016 -124.893 -78.3137 -138.549 -69.45 57.8578 -52.2263 10.8809 16.7961 2.173 15.5082 14.3675 10.1873 61.3148 -37.4175 72.4107 44.9929 56.0662 68.869 -8.54318 16.8607 7.45264 8.47473 -18.3996 13.8916 26.6432 37.0788 -36.5024 -10.6305 -0.949687 -0.518897 -1.18446e-009 1.5602e-007 -4.87132e-009 
197.104 99.3743 573.692 -14.6895 -0.736154 -82.0386 -1.62824 -22.7081 -12.5128 -14.5335 49.7421 6.30002 5.32741 -0.815041 0.276359 0.0462048 0.000533403 0.662642 28.6596 4.96002 -14.1118 -0.0703258 0.110203 0.0541662 -34.3581 49.8233 38.6478 2.75869e-033 7.95139e-016 -1.98785e-016 -158.262 -80.4265 -170.073 -71.5209 55.9208 -50.1906 10.2354 17.2475 -0.930153 15.4927 13.7525 12.4774 60.5857 -36.604 72.6587 45.0528 54.4889 66.2378 -8.89603 17.1585 8.66069 7.53485 -18.2611 13.3463 28.5542 36.1175 -36.4645 -9.47287 -1.41402 -0.448453 -1.18447e-009 1.5602e-007 -4.87131e-009 
198.22 98.8123 572.73 -14.218 -0.200254 -83.8379 -3.74372 -24.4165 -15.9855 -22.0694 55.1118 14.6954 5.3954 -0.0872691 0.274795 0.0462048 0.000533403 0.662642 27.4905 8.05516 -12.7211 -0.0544546 0.0892236 0.0697868 -33.5424 46.3162 38.4035 6.36111e-015 9.93923e-017 -3.97569e-016 167.837 -77.5504 159.31 -74.8189 57.2894 -50.3878 7.69983 18.2694 -3.8232 17.0714 12.1848 13.3007 59.6074 -35.618 72.6913 45.2636 53.5461 65.5284 -8.202 16.2242 10.646 7.08593 -18.1702 12.7641 29.1211 35.8985 -33.7461 -7.11991 -2.03661 -0.291509 -1.18447e-009 1.5602e-007 -4.87131e-009 
199.287 98.158 571.494 -13.7878 0.0521257 -85.2118 -6.59202 -25.3858 -18.574 -31.2541 59.5465 25.4536 6.38808 0.683936 0.343487 0.0462048 0.000533403 0.662642 25.3494 11.7193 -10.1668 -0.0333739 0.066654 0.0791475 -31.8073 41.7903 36.9145 3.18055e-015 -2.48481e-017 4.96962e-017 153.008 -72.7893 148.807 -79.9885 56.0099 -48.0338 10.604 10.7894 8.09155 19.8176 9.85873 13.0625 58.3747 -34.783 72.3027 45.392 53.1288 66.0494 -8.34307 16.778 9.66826 7.18543 -18.1835 12.2112 28.2024 36.2978 -28.9702 -3.59601 -2.70416 -0.0505281 -1.18447e-009 1.5602e-007 -4.87131e-009 
200.359 97.3642 569.975 -13.4177 0.0160356 -86.189 -8.61191 -25.8364 -20.3531 -44.1941 63.4036 40.6779 -5.5045 1.72654 -0.652789 0.0462048 0.000533403 0.662642 22.354 15.491 -6.31335 -0.0150835 0.0452243 0.0850281 -29.9185 36.8035 34.5638 3.18055e-015 5.96354e-016 -0 146.166 -69.4938 147.261 -82.8558 57.8117 -50.1001 7.45678 16.1423 -3.16839 22.7161 6.77807 12.0027 54.7626 -31.3662 67.803 45.8647 52.8075 70.7505 -9.17765 20.5747 7.76558 7.8233 -18.4721 11.6923 25.8496 37.3007 -22.6452 0.997502 -3.45278 0.311655 -1.18446e-009 1.5602e-007 -4.87131e-009 
201.533 96.6659 568.141 -13.076 -0.288105 -86.8186 -12.2748 -25.3599 -20.6567 -57.9442 64.3733 57.3846 5.5967 2.15017 0.698221 0.0462048 0.000533403 0.662642 19.0033 18.2996 -2.4021 0.0324392 -0.0230203 -0.00567963 -29.7349 31.7516 33.3429 -5.51738e-032 1.98785e-015 1.59028e-015 145.923 -67.964 149.481 -84.412 58.2733 -51.429 6.54976 15.9242 2.35096 25.3569 4.31823 11.0357 52.5334 -29.3068 65.0227 45.9181 52.6226 74.4301 -9.77159 23.1571 5.38883 9.09413 -18.7596 11.2811 21.4346 37.9535 -14.5016 6.66979 -3.8339 0.674834 -1.18447e-009 1.5602e-007 -4.87131e-009 
202.786 96.0023 566.052 -12.7169 -0.800203 -87.1505 -14.6671 -24.0228 -19.9615 -66.0976 62.6794 69.4879 6.94215 3.06349 0.136139 0.0462048 0.000533403 0.662642 15.8526 20.2803 1.07724 0.0329588 -0.0281706 -0.0103694 -29.9713 27.5197 32.0695 -1.59028e-015 1.19271e-015 1.59028e-015 147.564 -67.3535 152.311 -85.2793 58.2349 -52.5375 4.92027 18.7343 -3.09046 27.6987 2.32502 10.3094 51.0398 -28.1338 63.2314 45.8326 52.6292 77.2693 -9.46628 23.9605 4.79296 10.631 -19.1678 10.9249 17.4827 37.5641 -7.75451 11.7586 -3.88309 0.989414 -1.18446e-009 1.5602e-007 -4.87132e-009 
204.113 95.4047 563.755 -12.2794 -1.42773 -87.2409 -16.9248 -21.6745 -18.0029 -66.3318 59.7685 74.8472 13.7761 3.26107 0.14181 0.0462048 0.000533403 0.662642 13.0131 21.5518 4.11977 0.0301287 -0.0267937 -0.0103694 -30.5633 24.043 30.8877 -3.18055e-015 -2.38542e-015 -1.59028e-015 149.455 -67.3422 154.844 -85.5116 58.0011 -53.5659 4.72049 18.4285 1.01829 29.5359 0.791897 9.77869 50.3324 -27.4752 62.1793 45.7328 52.7267 79.2683 -4.39559 6.76727 9.67897 12.2604 -19.6085 10.645 13.8057 36.4508 -2.16304 16.6572 -3.76231 1.23419 -1.18446e-009 1.5602e-007 -4.87132e-009 
205.505 94.9238 561.397 -11.7116 -2.07931 -87.1406 -18.0931 -18.4527 -15.2743 -58.2818 56.1665 73.932 12.795 3.28181 -0.0619623 0.0462048 0.000533403 0.662642 10.5473 22.221 6.72955 0.0261786 -0.0231134 -0.0103694 -31.3382 21.211 29.835 -0 0 4.77083e-015 150.84 -67.6655 156.694 -85.4492 57.8359 -54.6036 3.99971 20.0142 -1.84978 30.8352 -0.375817 9.35343 50.3967 -27.0424 61.7809 45.705 52.8623 80.5021 -5.69463 16.2282 6.37428 13.7698 -20.0018 10.4273 10.3458 34.6681 2.45054 21.5816 -3.4618 1.41248 -1.18446e-009 1.5602e-007 -4.87132e-009 
